<svg width="32" height="32" viewBox="0 0 32 32" xmlns="http://www.w3.org/2000/svg">
  <path d="M26.917 0H25.32a3.833 3.833 0 0 0-3.83 3.836v1.599a3.833 3.833 0 0 0 3.83 3.836h1.597a3.833 3.833 0 0 0 3.83-3.836v-1.6A3.833 3.833 0 0 0 26.917 0zM16.174 10.758h-1.597a3.833 3.833 0 0 0-3.83 3.836v1.599a3.833 3.833 0 0 0 3.83 3.836h1.597a3.833 3.833 0 0 0 3.83-3.836v-1.599a3.833 3.833 0 0 0-3.83-3.836z" fill="#96DCFF"></path>
  <path d="M26.917 10.758H25.32a3.833 3.833 0 0 0-3.83 3.836v1.599a3.833 3.833 0 0 0 3.83 3.836h1.597a3.833 3.833 0 0 0 3.83-3.836v-1.599a3.833 3.833 0 0 0-3.83-3.836z" fill="#50C3FF"></path>
  <path d="M5.43 21.516H3.835a3.833 3.833 0 0 0-3.83 3.836v1.6a3.833 3.833 0 0 0 3.83 3.835h1.597a3.833 3.833 0 0 0 3.83-3.836v-1.599a3.833 3.833 0 0 0-3.83-3.836z" fill="#96DCFF"></path>
  <path d="M16.174 21.516h-1.597a3.833 3.833 0 0 0-3.83 3.836v1.6a3.833 3.833 0 0 0 3.83 3.835h1.597a3.833 3.833 0 0 0 3.83-3.836v-1.599a3.833 3.833 0 0 0-3.83-3.836z" fill="#50C3FF"></path>
  <path d="M26.917 21.516H25.32a3.833 3.833 0 0 0-3.83 3.836v1.6a3.833 3.833 0 0 0 3.83 3.835h1.597a3.833 3.833 0 0 0 3.83-3.836v-1.599a3.833 3.833 0 0 0-3.83-3.836z" fill="#009BFF"></path>
</svg>